<svg xmlns="http://www.w3.org/2000/svg" width="67" height="67" fill="none" viewBox="0 0 67 67"><path fill="#fff" fill-rule="evenodd" d="M33.5 0C15 0 0 15 0 33.5S15 67 33.5 67 67 52 67 33.5a2.583 2.583 0 0 0-2.58-2.53c-1.4 0-2.55 1.13-2.57 2.53 0 15.66-12.69 28.35-28.35 28.35-15.65 0-28.35-12.7-28.35-28.35 0-15.66 12.7-28.35 28.35-28.35 7.3 0 13.96 2.76 18.99 7.3.46.42.9.85 1.34 1.29h-6.59a2.58 2.58 0 0 0 0 5.16h13.75c1.42 0 2.57-1.16 2.57-2.58V2.58c0-1.43-1.15-2.58-2.57-2.58-1.43 0-2.58 1.15-2.58 2.58v8.52c-.78-.87-1.61-1.7-2.47-2.48A33.446 33.446 0 0 0 33.54 0h-.04zm.48 41.34c-1.6-2.21-2-5.2-2-7.85 0-2.65.4-5.63 2-7.83 1.44-1.97 3.47-2.84 5.88-2.84 2.41 0 4.42.87 5.86 2.84 1.61 2.21 2.03 5.16 2.03 7.83 0 2.66-.4 5.64-2 7.85-1.43 1.97-3.47 2.84-5.89 2.84-2.41 0-4.45-.87-5.88-2.84zm-9.73-12.77l-5 1.58v-4.21l5.87-2.65h4.28v20.47h-5.15V28.57zm17.61 9.96c.61-1.33.68-3.6.68-5.04s-.07-3.7-.68-5.02c-.4-.87-1.04-1.29-2-1.29-.95 0-1.59.42-1.99 1.29-.61 1.32-.68 3.58-.68 5.02 0 1.44.07 3.71.68 5.04.4.86 1.04 1.28 1.99 1.28.96 0 1.6-.42 2-1.28z"/></svg>